<?xml version="1.0" encoding="utf-8"?>
<!-- Svg Vector Icons : http://www.onlinewebfonts.com/icon -->
<!DOCTYPE svg PUBLIC "-//W3C//DTD SVG 1.1//EN" "http://www.w3.org/Graphics/SVG/1.1/DTD/svg11.dtd">
<svg version="1.1" xmlns="http://www.w3.org/2000/svg" xmlns:xlink="http://www.w3.org/1999/xlink" x="0px" y="0px" viewBox="0 0 256 256" enable-background="new 0 0 256 256" xml:space="preserve">
<metadata> Svg Vector Icons : http://www.onlinewebfonts.com/icon </metadata>
<g><g><g><path fill="#000000" d="M14.1,11c-1.4,0.7-2.4,1.7-3.1,2.9L10,15.8v89.4v89.4l1.1,1.8c0.6,1.2,1.7,2.2,3.1,2.9l2,1.1l36,0h36l17.5,21.9c18.3,23,18.9,23.6,22.4,23.6c3.4,0,4.1-0.8,22.4-23.6l17.5-21.9l36,0h36l2-1c1.5-0.8,2.3-1.6,3.1-3.1l1.1-2V105V15.8l-1.1-1.8c-0.6-1.2-1.7-2.2-3.1-2.9l-2-1H128H16.2L14.1,11z M231.3,105.2v80.4h-34.1c-28.4,0-34.4,0.1-35.7,0.6c-1.2,0.5-5.2,5.2-17.4,20.5c-8.7,10.9-15.9,19.8-16,19.8s-7.3-8.9-16-19.8c-12.2-15.3-16.2-20-17.4-20.5c-1.3-0.6-7.3-0.6-35.7-0.6H24.7v-80.4V24.7H128h103.3V105.2z"/><path fill="#000000" d="M119.9,38.8c-1.8,0.8-3.3,2.6-3.9,4.8c-0.3,1.1-0.4,5.4-0.3,11.8c0.1,9.6,0.2,10.2,1.2,11.8c2.3,3.6,7.2,4.5,10.6,1.9c2.8-2.1,2.9-2.7,2.9-14.8c0-10.2,0-11-1-12.6C127.5,38.6,123.3,37.3,119.9,38.8z"/><path fill="#000000" d="M97.7,47.8c-0.8,0.5-1.9,1.6-2.4,2.4c-0.9,1.4-0.9,2.4-0.9,13.7c0,11,0.1,12.4,0.9,13.8c2.6,4.8,10.1,4.7,12.9-0.1c0.7-1.3,0.8-3,0.8-13.5c0-11.2,0-12.1-1-13.6C105.8,47,101.1,45.7,97.7,47.8z"/><path fill="#000000" d="M140.4,47.9c-3,2.2-3.2,3.2-3.1,16.8c0.1,11.4,0.2,12.1,1.1,13.4c3.2,4.3,8.8,4.5,12,0.3l1.3-1.7l0.1-11.6c0.1-7.2,0-12.2-0.3-13.2c-0.3-0.9-1.2-2.4-2.1-3.2c-1.4-1.4-1.9-1.6-4.5-1.8C142.5,46.8,141.8,47,140.4,47.9z"/><path fill="#000000" d="M75,89.6c-2.1,1.1-3.5,3.3-3.9,6.2c-0.2,1.3-0.2,13.1-0.1,26.1c0.2,22.6,0.2,23.9,1.2,27.3c3.1,11.2,11.5,19.7,22.9,23.2c2.5,0.8,4.8,0.8,28.1,0.8h25.4l3.7-1.2c5.3-1.8,9.2-4.2,13.1-8.2c5.3-5.3,8.2-11,9.3-18.3l0.5-3.4h8c6.7,0,8.4-0.1,11-0.9c5.8-1.8,10.6-6.7,12.4-12.5c0.8-2.8,0.9-4.1,0.8-10.6c-0.1-7.3-0.2-7.6-1.6-10.6c-2.8-5.8-7.8-9.8-13.9-11c-1.3-0.2-5.7-0.5-9.5-0.5H175v-1.1c0-1.4-1.8-3.9-3.6-5.2l-1.6-1.1h-46.6C79.7,88.8,76.5,88.9,75,89.6z M160.2,124.6l-0.1,21.1l-1.3,2.8c-1.8,3.5-5.3,7.1-8.8,8.8l-2.8,1.3h-24h-24l-3-1.4c-5.3-2.5-9.1-7.4-10.1-13c-0.3-1.4-0.5-10.6-0.5-21.5v-19.1h37.3h37.4L160.2,124.6z M191.4,112.5c1,1.2,1.1,1.7,1.1,6.8c0,5.5,0,5.6-1.3,6.9l-1.3,1.3h-7.4H175v-8.3v-8.3l7.7,0.1l7.7,0.1L191.4,112.5z"/></g></g></g>
</svg>