<svg width="46" height="45" viewBox="0 0 46 45" fill="none" xmlns="http://www.w3.org/2000/svg">
<g id="&#235;&#172;&#184;&#236;&#157;&#152; &#236;&#149;&#132;&#236;&#157;&#180;&#236;&#189;&#152;">
<ellipse id="&#237;&#133;&#140;&#235;&#145;&#144;&#235;&#166;&#172; &#236;&#155;&#144;" cx="23.2483" cy="22.5" rx="22.3855" ry="22.5" fill="#E5E7EC"/>
<path id="Vector" d="M39.4014 16.4575L39.863 16.9215L35.3172 21.4913H34.8555V21.0272L39.4014 16.4575ZM41.2077 13.4211C41.0823 13.4211 40.9518 13.4715 40.8565 13.5674L39.9383 14.4904L41.8198 16.3818L42.738 15.4588C42.9337 15.2621 42.9337 14.9443 42.738 14.7476L41.5639 13.5674C41.4636 13.4665 41.3382 13.4211 41.2077 13.4211ZM39.4014 15.0301L33.8521 20.6086V22.5H35.7336L41.283 16.9215L39.4014 15.0301Z" fill="black"/>
<path id="Vector_2" d="M27.852 23.1015C24.54 23.1015 21.852 25.7962 21.852 29.1165C21.852 32.4368 24.54 35.1316 27.852 35.1316C31.164 35.1316 33.852 32.4368 33.852 29.1165C33.852 25.7962 31.164 23.1015 27.852 23.1015ZM29.832 31.9436L27.252 29.3571V25.5075H28.452V28.8639L30.672 31.0895L29.832 31.9436ZM29.052 12.2744H25.236C24.732 10.8789 23.412 9.86841 21.852 9.86841C20.292 9.86841 18.972 10.8789 18.468 12.2744H14.652C13.332 12.2744 12.252 13.3571 12.252 14.6804V32.7256C12.252 34.0489 13.332 35.1316 14.652 35.1316H21.984C21.276 34.4459 20.7 33.6278 20.28 32.7256H14.652V14.6804H17.052V18.2895H26.652V14.6804H29.052V20.7917C29.904 20.912 30.708 21.1646 31.452 21.5135V14.6804C31.452 13.3571 30.372 12.2744 29.052 12.2744ZM21.852 14.6804C21.192 14.6804 20.652 14.1391 20.652 13.4774C20.652 12.8158 21.192 12.2744 21.852 12.2744C22.512 12.2744 23.052 12.8158 23.052 13.4774C23.052 14.1391 22.512 14.6804 21.852 14.6804Z" fill="black"/>
</g>
</svg>
