<svg width="45" height="48" viewBox="0 0 45 48" fill="none" xmlns="http://www.w3.org/2000/svg">
    <g id="&#235;&#172;&#184;&#236;&#157;&#152; &#236;&#149;&#132;&#236;&#157;&#180;&#236;&#189;&#152;">
        <ellipse id="&#237;&#133;&#140;&#235;&#145;&#144;&#235;&#166;&#172; &#236;&#155;&#144;" cx="22.3855" cy="24.275"
                 rx="22.3855" ry="23.625" fill="#E5E7EC"/>
        <path id="Vector"
              d="M38.5386 17.9304L39.0002 18.4176L34.4544 23.2159H33.9928V22.7286L38.5386 17.9304ZM40.3449 14.7422C40.2195 14.7422 40.089 14.7951 39.9937 14.8958L39.0755 15.865L40.957 17.851L41.8752 16.8818C42.0709 16.6752 42.0709 16.3416 41.8752 16.135L40.7011 14.8958C40.6008 14.7899 40.4754 14.7422 40.3449 14.7422ZM38.5386 16.4316L32.9893 22.2891V24.2751H34.8708L40.4202 18.4176L38.5386 16.4316Z"
              fill="black"/>
        <path id="Vector_2"
              d="M26.9887 24.9066C23.6767 24.9066 20.9887 27.7361 20.9887 31.2224C20.9887 34.7087 23.6767 37.5382 26.9887 37.5382C30.3007 37.5382 32.9887 34.7087 32.9887 31.2224C32.9887 27.7361 30.3007 24.9066 26.9887 24.9066ZM28.9687 34.1908L26.3887 31.475V27.4329H27.5887V30.9571L29.8087 33.2939L28.9687 34.1908ZM28.1887 13.5382H24.3727C23.8687 12.0729 22.5487 11.0118 20.9887 11.0118C19.4287 11.0118 18.1087 12.0729 17.6047 13.5382H13.7887C12.4687 13.5382 11.3887 14.675 11.3887 16.0645V35.0118C11.3887 36.4013 12.4687 37.5382 13.7887 37.5382H21.1207C20.4127 36.8182 19.8367 35.9592 19.4167 35.0118H13.7887V16.0645H16.1887V19.8539H25.7887V16.0645H28.1887V22.4813C29.0407 22.6076 29.8447 22.8729 30.5887 23.2392V16.0645C30.5887 14.675 29.5087 13.5382 28.1887 13.5382ZM20.9887 16.0645C20.3287 16.0645 19.7887 15.4961 19.7887 14.8013C19.7887 14.1066 20.3287 13.5382 20.9887 13.5382C21.6487 13.5382 22.1887 14.1066 22.1887 14.8013C22.1887 15.4961 21.6487 16.0645 20.9887 16.0645Z"
              fill="black"/>
    </g>
</svg>
