<svg width="55" height="55" viewBox="0 0 55 55" fill="none" xmlns="http://www.w3.org/2000/svg">
    <circle cx="27.5" cy="27.5" r="26.5" stroke="#33363B" stroke-width="2"/>
    <path d="M22.0591 17.6224C21.3241 14.6599 20.9567 13.1787 21.6028 12.1121C21.7264 11.9081 21.8739 11.7196 22.0421 11.5506C22.9217 10.6666 24.4478 10.6666 27.5002 10.6666V10.6666C30.5525 10.6666 32.0787 10.6666 32.9582 11.5506C33.1265 11.7196 33.2739 11.9081 33.3975 12.1121C34.0437 13.1787 33.6762 14.6599 32.9412 17.6225L29.6685 30.8148C29.4876 31.544 29.3972 31.9086 29.1257 32.1209C28.8543 32.3333 28.4786 32.3333 27.7274 32.3333H27.273C26.5217 32.3333 26.1461 32.3333 25.8746 32.1209C25.6031 31.9086 25.5127 31.544 25.3318 30.8148L22.0591 17.6224Z"
          fill="#33363B" stroke="#33363B" stroke-width="2"/>
    <ellipse cx="27.4998" cy="43.1666" rx="3.58333" ry="4.33333" fill="black" stroke="black" stroke-width="2"/>
</svg>
