<svg width="31" height="30" viewBox="0 0 31 30" fill="none" xmlns="http://www.w3.org/2000/svg">
    <path fill-rule="evenodd" clip-rule="evenodd"
          d="M13.13 15.9021L8.48411 14.4034C6.05525 13.6199 4.84082 13.2282 4.84082 12.5C4.84082 11.7718 6.05525 11.3801 8.48411 10.5966L22.0255 6.22841C23.687 5.69243 24.5178 5.42444 24.9505 5.8658C25.3833 6.30716 25.099 7.13249 24.5304 8.78316L19.9745 22.0101C19.1893 24.2896 18.7967 25.4294 18.0835 25.4294C17.3703 25.4294 16.9777 24.2896 16.1926 22.0101L14.568 17.2937L20.0706 11.9686C20.4675 11.5845 20.4779 10.9515 20.0938 10.5546C19.7097 10.1577 19.0766 10.1473 18.6798 10.5314L13.13 15.9021Z"
          fill="#5567F1"/>
</svg>
