<svg width="52" height="17" viewBox="0 0 52 17" fill="none" xmlns="http://www.w3.org/2000/svg">
    <path d="M0.180664 15L8.61816 0.673828L17.0381 15H0.180664ZM7.40527 12.1348C7.40527 12.7939 7.9502 13.3301 8.61816 13.3301C9.27734 13.3301 9.82227 12.7939 9.81348 12.1348C9.82227 11.458 9.27734 10.9131 8.61816 10.9219C7.9502 10.9131 7.40527 11.458 7.40527 12.1348ZM7.59863 5.45508L7.68652 9.62109H9.53223L9.6377 5.45508H7.59863ZM29.3291 0.638672V9.84961H27.0967V8.28516H23.4932V6.49219H27.0967V4.96289H23.6602C22.6582 7.49414 20.3818 9.24316 16.8662 10.2012L15.9873 8.42578C19.6611 7.46777 21.4717 5.70117 21.7881 3.50391H16.8486V1.71094H24.2314C24.2314 2.22949 24.1963 2.73047 24.1172 3.20508H27.0967V0.638672H29.3291ZM18.5361 13.2773C18.5273 11.2998 20.7158 10.0518 24.0029 10.043C27.2461 10.0518 29.4434 11.2998 29.4521 13.2773C29.4434 15.2812 27.2461 16.5469 24.0029 16.5469C20.7158 16.5469 18.5273 15.2812 18.5361 13.2773ZM20.7686 13.2773C20.7686 14.2705 21.9727 14.7715 24.0029 14.7715C25.9893 14.7715 27.1934 14.2705 27.2021 13.2773C27.1934 12.293 25.9893 11.7832 24.0029 11.8008C21.9727 11.7832 20.7686 12.293 20.7686 13.2773ZM43.5869 2.00977V3.52148C43.5781 5.52539 43.5781 7.77539 42.9365 11.168L40.6865 10.9395C41.3018 7.91602 41.3281 5.66602 41.3369 3.78516H31.915V2.00977H43.5869ZM30.4033 14.666V12.8379H35.624V7.33594H37.8564V12.8379H44.9932V14.666H30.4033ZM51.7471 2.27344L51.5186 11.1855H49.2686L49.04 2.27344H51.7471ZM48.9346 13.6816C48.917 12.873 49.585 12.2139 50.4111 12.2227C51.1934 12.2139 51.8701 12.873 51.8701 13.6816C51.8701 14.499 51.1934 15.1582 50.4111 15.1582C49.585 15.1582 48.917 14.499 48.9346 13.6816Z"
          fill="#F15555"/>
</svg>
